<svg xmlns="http://www.w3.org/2000/svg" width="21" height="15" fill="none" viewBox="0 0 21 15"><path fill="#000" d="M19.473 1.67c-.71-.843-2.02-1.187-4.52-1.187H5.871c-2.559 0-3.89.366-4.598 1.264-.689.875-.689 2.165-.689 3.95V9.1c0 3.458.818 5.214 5.287 5.214h9.08c2.17 0 3.372-.303 4.15-1.047.797-.764 1.137-2.01 1.137-4.167V5.697c0-1.883-.053-3.18-.766-4.027zm-6.27 6.198L9.08 10.023a.633.633 0 01-.928-.562V5.165a.634.634 0 01.926-.563l4.124 2.142a.634.634 0 01.001 1.124z" class="icon__el"/></svg>