<svg xmlns="http://www.w3.org/2000/svg" width="20" height="11" fill="none" viewBox="0 0 20 11"><path fill="#000" fill-rule="evenodd" d="M9.85 10.958h1.115s.337-.037.509-.222c.158-.17.153-.489.153-.489s-.022-1.492.673-1.712c.685-.216 1.564 1.443 2.496 2.08.705.483 1.24.377 1.24.377l2.492-.034s1.303-.08.685-1.103c-.05-.083-.36-.756-1.852-2.138-1.563-1.446-1.354-1.212.529-3.714 1.146-1.524 1.604-2.454 1.46-2.852-.136-.38-.979-.28-.979-.28L15.566.89s-.208-.028-.363.064c-.15.09-.247.3-.247.3s-.444 1.18-1.037 2.182C12.67 5.55 12.171 5.662 11.966 5.53c-.475-.306-.356-1.23-.356-1.886 0-2.05.312-2.906-.607-3.127-.305-.074-.53-.122-1.31-.13-1-.01-1.848.003-2.328.238-.32.155-.565.503-.415.523.185.024.605.113.828.415.287.39.277 1.266.277 1.266s.165 2.414-.386 2.714c-.378.206-.897-.214-2.01-2.134-.571-.983-1.002-2.07-1.002-2.07s-.083-.203-.231-.312c-.18-.131-.432-.173-.432-.173L1.328.872s-.4.011-.547.185c-.13.154-.01.473-.01.473S2.858 6.4 5.22 8.855c2.168 2.25 4.629 2.103 4.629 2.103z" class="icon__el" clip-rule="evenodd"/></svg>