<svg xmlns="http://www.w3.org/2000/svg" width="19" height="19" fill="none" viewBox="0 0 19 19"><path fill="#000" d="M13.401.686H5.212A4.839 4.839 0 00.38 5.52v8.188a4.839 4.839 0 004.833 4.834h8.19a4.839 4.839 0 004.832-4.834V5.52A4.839 4.839 0 0013.401.686zm-4.094 13.81a4.888 4.888 0 01-4.882-4.882 4.888 4.888 0 014.882-4.882 4.888 4.888 0 014.882 4.882 4.888 4.888 0 01-4.882 4.882zm4.999-8.613a1.444 1.444 0 01-1.443-1.442c0-.796.647-1.443 1.443-1.443.795 0 1.442.647 1.442 1.443 0 .795-.647 1.442-1.442 1.442z" class="icon__el"/><path fill="#000" d="M9.307 5.779A3.84 3.84 0 005.47 9.614a3.84 3.84 0 003.836 3.836 3.84 3.84 0 003.835-3.836A3.84 3.84 0 009.307 5.78zM14.306 4.045a.396.396 0 100 .792.396.396 0 000-.792z" class="icon__el"/></svg>