<svg width="21" height="15" viewBox="0 0 21 15" fill="none" xmlns="http://www.w3.org/2000/svg">
    <path class="icon__el" d="M19.4733 1.66991C18.7638 0.826545 17.4539 0.482536 14.9523 0.482536H5.87188C3.31311 0.482536 1.98107 0.848732 1.27429 1.74661C0.585205 2.62205 0.585205 3.91192 0.585205 5.69714V9.09976C0.585205 12.5584 1.4028 14.3143 5.87188 14.3143H14.9523C17.1217 14.3143 18.3238 14.0108 19.1015 13.2665C19.899 12.5032 20.2393 11.2571 20.2393 9.09976V5.69714C20.2393 3.81448 20.1859 2.51699 19.4733 1.66991ZM13.2031 7.86821L9.07974 10.0232C8.98756 10.0714 8.88675 10.0953 8.78606 10.0953C8.67208 10.0953 8.55834 10.0647 8.45759 10.0036C8.2679 9.8887 8.15206 9.68311 8.15206 9.46132V5.16508C8.15206 4.94369 8.26759 4.73828 8.4569 4.62328C8.64628 4.50825 8.8818 4.5004 9.07828 4.60247L13.2017 6.74362C13.4115 6.85254 13.5432 7.06912 13.5436 7.3054C13.5438 7.5419 13.4127 7.75878 13.2031 7.86821Z" fill="#000"/>
</svg>
