<svg width="16" height="16" viewBox="0 0 16 16" fill="none" xmlns="http://www.w3.org/2000/svg">
<path d="M0.279356 14.3067C-0.103546 14.7047 -0.0913058 15.3377 0.306695 15.7206C0.704696 16.1035 1.33774 16.0913 1.72064 15.6933L0.279356 14.3067ZM15.4687 0.980642C15.458 0.428461 15.0018 -0.0105157 14.4496 0.000160698L5.45125 0.174148C4.89907 0.184824 4.4601 0.641111 4.47077 1.19329C4.48145 1.74547 4.93774 2.18445 5.48992 2.17377L13.4884 2.01912L13.6431 10.0176C13.6538 10.5698 14.11 11.0088 14.6622 10.9981C15.2144 10.9874 15.6534 10.5311 15.6427 9.97896L15.4687 0.980642ZM1.72064 15.6933L15.1895 1.69328L13.7483 0.306669L0.279356 14.3067L1.72064 15.6933Z" fill="white"/>
</svg>
