<svg width="19" height="19" viewBox="0 0 19 19" fill="none" xmlns="http://www.w3.org/2000/svg">
<path d="M13.4011 0.686356H5.21241C2.54732 0.686356 0.37915 2.8545 0.37915 5.51959V13.7084C0.37915 16.3735 2.54732 18.5417 5.21241 18.5417H13.4013C16.0661 18.5417 18.2343 16.3735 18.2343 13.7084V5.51959C18.2343 2.8545 16.0661 0.686356 13.4011 0.686356ZM9.30676 14.4961C6.6147 14.4961 4.42463 12.306 4.42463 9.61397C4.42463 6.92189 6.6147 4.73181 9.30676 4.73181C11.9988 4.73181 14.189 6.92189 14.189 9.61397C14.189 12.306 11.9988 14.4961 9.30676 14.4961ZM14.3057 5.88319C13.5101 5.88319 12.863 5.23611 12.863 4.44057C12.863 3.64502 13.5101 2.9978 14.3057 2.9978C15.1012 2.9978 15.7483 3.64502 15.7483 4.44057C15.7483 5.23611 15.1012 5.88319 14.3057 5.88319Z" fill="white"/>
<path d="M9.30683 5.77873C7.19207 5.77873 5.47144 7.49924 5.47144 9.61413C5.47144 11.7289 7.19207 13.4496 9.30683 13.4496C11.4217 13.4496 13.1421 11.7289 13.1421 9.61413C13.1421 7.49924 11.4217 5.77873 9.30683 5.77873Z" fill="white"/>
<path d="M14.3058 4.04461C14.0875 4.04461 13.9099 4.22224 13.9099 4.44047C13.9099 4.65872 14.0875 4.83635 14.3058 4.83635C14.524 4.83635 14.7018 4.65884 14.7018 4.44047C14.7018 4.2221 14.524 4.04461 14.3058 4.04461Z" fill="white"/>
</svg>
