<svg width="20" height="11" viewBox="0 0 20 11" fill="none" xmlns="http://www.w3.org/2000/svg">
<path fill-rule="evenodd" clip-rule="evenodd" d="M9.84959 10.9578H10.9649C10.9649 10.9578 11.3018 10.921 11.4738 10.7359C11.6322 10.5662 11.6271 10.2473 11.6271 10.2473C11.6271 10.2473 11.6053 8.7548 12.2999 8.53495C12.9846 8.31851 13.8639 9.97759 14.7959 10.6154C15.5005 11.0982 16.036 10.9924 16.036 10.9924L18.528 10.9578C18.528 10.9578 19.8314 10.8777 19.2133 9.85549C19.1628 9.77182 18.8535 9.09937 17.3607 7.71741C15.7982 6.27105 16.0074 6.50499 17.8896 4.00309C19.0359 2.4794 19.4941 1.54917 19.3509 1.15075C19.2143 0.771283 18.3713 0.871596 18.3713 0.871596L15.5657 0.889015C15.5657 0.889015 15.3577 0.860735 15.2034 0.95268C15.0527 1.04288 14.9556 1.25308 14.9556 1.25308C14.9556 1.25308 14.5116 2.43215 13.9193 3.43488C12.67 5.55075 12.1705 5.66243 11.9663 5.53106C11.4913 5.22485 11.6099 4.30095 11.6099 3.64458C11.6099 1.59415 11.9217 0.7392 11.0027 0.517895C10.6977 0.444375 10.4733 0.395878 9.69327 0.388033C8.69217 0.377674 7.84483 0.39107 7.36505 0.62551C7.04589 0.781401 6.79966 1.12879 6.94962 1.14874C7.13505 1.1735 7.55503 1.26167 7.77771 1.56407C8.06523 1.95416 8.05509 2.83033 8.05509 2.83033C8.05509 2.83033 8.22026 5.24406 7.66929 5.54394C7.29109 5.74959 6.7723 5.32971 5.65846 3.41014C5.08776 2.42684 4.65685 1.33999 4.65685 1.33999C4.65685 1.33999 4.57378 1.13687 4.42557 1.02823C4.24572 0.896599 3.99443 0.854659 3.99443 0.854659L1.32829 0.872099C1.32829 0.872099 0.928045 0.883222 0.781126 1.05677C0.650419 1.21114 0.770746 1.53048 0.770746 1.53048C0.770746 1.53048 2.85805 6.40089 5.2215 8.85538C7.38862 11.1056 9.84959 10.9578 9.84959 10.9578Z" fill="white"/>
</svg>
