<?xml version="1.0" encoding="utf-8"?><svg xmlns="http://www.w3.org/2000/svg" xmlns:xlink="http://www.w3.org/1999/xlink"><symbol viewBox="0 0 16 16" id="icon-arrow-link"><path fill="#000" d="M.28 14.307a1 1 0 101.44 1.386L.28 14.307zM15.468.98a1 1 0 00-1.02-.98L5.452.173a1 1 0 00.039 2l7.998-.155.155 7.999a1 1 0 102-.039L15.469.981zM1.72 15.693l13.469-14L13.748.307l-13.469 14 1.442 1.386z" class="icon__el"/></symbol><symbol viewBox="0 0 10 9" id="icon-arrow-right"><path stroke="#000" d="M4.776.43l3.936 3.936L4.776 8.3M8.732 4.367H.152" class="icon__el"/></symbol><symbol viewBox="0 0 9 17" id="icon-facebook"><path fill="#000" d="M6.22 3.913h2.026V.973H5.864v.011c-2.886.1-3.477 1.694-3.53 3.367H2.33V5.82H.364V8.7h1.965v7.717H5.29V8.698h2.426l.469-2.879H5.29v-.887c0-.565.383-1.019.929-1.019z" class="icon__el"/></symbol><symbol viewBox="0 0 19 19" id="icon-instagram"><path fill="#000" d="M13.401.686H5.212A4.839 4.839 0 00.38 5.52v8.188a4.839 4.839 0 004.833 4.834h8.19a4.839 4.839 0 004.832-4.834V5.52A4.839 4.839 0 0013.401.686zm-4.094 13.81a4.888 4.888 0 01-4.882-4.882 4.888 4.888 0 014.882-4.882 4.888 4.888 0 014.882 4.882 4.888 4.888 0 01-4.882 4.882zm4.999-8.613a1.444 1.444 0 01-1.443-1.442c0-.796.647-1.443 1.443-1.443.795 0 1.442.647 1.442 1.443 0 .795-.647 1.442-1.442 1.442z" class="icon__el"/><path fill="#000" d="M9.307 5.779A3.84 3.84 0 005.47 9.614a3.84 3.84 0 003.836 3.836 3.84 3.84 0 003.835-3.836A3.84 3.84 0 009.307 5.78zM14.306 4.045a.396.396 0 100 .792.396.396 0 000-.792z" class="icon__el"/></symbol><symbol viewBox="0 0 20 11" id="icon-vk"><path fill="#000" fill-rule="evenodd" d="M9.85 10.958h1.115s.337-.037.509-.222c.158-.17.153-.489.153-.489s-.022-1.492.673-1.712c.685-.216 1.564 1.443 2.496 2.08.705.483 1.24.377 1.24.377l2.492-.034s1.303-.08.685-1.103c-.05-.083-.36-.756-1.852-2.138-1.563-1.446-1.354-1.212.529-3.714 1.146-1.524 1.604-2.454 1.46-2.852-.136-.38-.979-.28-.979-.28L15.566.89s-.208-.028-.363.064c-.15.09-.247.3-.247.3s-.444 1.18-1.037 2.182C12.67 5.55 12.171 5.662 11.966 5.53c-.475-.306-.356-1.23-.356-1.886 0-2.05.312-2.906-.607-3.127-.305-.074-.53-.122-1.31-.13-1-.01-1.848.003-2.328.238-.32.155-.565.503-.415.523.185.024.605.113.828.415.287.39.277 1.266.277 1.266s.165 2.414-.386 2.714c-.378.206-.897-.214-2.01-2.134-.571-.983-1.002-2.07-1.002-2.07s-.083-.203-.231-.312c-.18-.131-.432-.173-.432-.173L1.328.872s-.4.011-.547.185c-.13.154-.01.473-.01.473S2.858 6.4 5.22 8.855c2.168 2.25 4.629 2.103 4.629 2.103z" class="icon__el" clip-rule="evenodd"/></symbol><symbol viewBox="0 0 21 15" id="icon-youtube"><path fill="#000" d="M19.473 1.67c-.71-.843-2.02-1.187-4.52-1.187H5.871c-2.559 0-3.89.366-4.598 1.264-.689.875-.689 2.165-.689 3.95V9.1c0 3.458.818 5.214 5.287 5.214h9.08c2.17 0 3.372-.303 4.15-1.047.797-.764 1.137-2.01 1.137-4.167V5.697c0-1.883-.053-3.18-.766-4.027zm-6.27 6.198L9.08 10.023a.633.633 0 01-.928-.562V5.165a.634.634 0 01.926-.563l4.124 2.142a.634.634 0 01.001 1.124z" class="icon__el"/></symbol></svg>