<?xml version="1.0" encoding="utf-8"?><svg xmlns="http://www.w3.org/2000/svg" xmlns:xlink="http://www.w3.org/1999/xlink"><symbol viewBox="0 0 16 16" id="icon-arrow-link"><path fill="#fff" d="M.28 14.307a1 1 0 101.44 1.386L.28 14.307zM15.468.98a1 1 0 00-1.02-.98L5.452.173a1 1 0 00.039 2l7.998-.155.155 7.999a1 1 0 102-.039L15.469.981zM1.72 15.693l13.469-14L13.748.307l-13.469 14 1.442 1.386z"/></symbol><symbol viewBox="0 0 10 9" id="icon-arrow-right"><path stroke="#fff" d="M4.776.43l3.936 3.936L4.776 8.3M8.732 4.367H.152"/></symbol><symbol viewBox="0 0 24 24" id="icon-bookmark-filling"><path d="M2.849 23.55a2.954 2.954 0 003.266-.644L12 17.053l5.885 5.853a2.956 2.956 0 002.1.881 3.05 3.05 0 001.17-.237A2.953 2.953 0 0023 20.779V5a5.006 5.006 0 00-5-5H6a5.006 5.006 0 00-5 5v15.779a2.953 2.953 0 001.849 2.771z" class="icon__color-element"/></symbol><symbol viewBox="0 0 24 24" id="icon-bookmark-outline"><path d="M20.137 24a2.8 2.8 0 01-1.987-.835L12 17.051l-6.15 6.118a2.8 2.8 0 01-3.095.609A2.8 2.8 0 011 21.154V5a5 5 0 015-5h12a5 5 0 015 5v16.154a2.8 2.8 0 01-1.751 2.624 2.867 2.867 0 01-1.112.222zM6 2a3 3 0 00-3 3v16.154a.843.843 0 001.437.6l6.863-6.821a1 1 0 011.41 0l6.855 6.819a.843.843 0 001.437-.6V5a3 3 0 00-3-3z" class="icon__color-element"/></symbol><symbol viewBox="0 0 9 17" id="icon-facebook"><path fill="#fff" d="M6.22 3.913h2.026V.973H5.864v.011c-2.886.1-3.477 1.694-3.53 3.367H2.33V5.82H.364V8.7h1.965v7.717H5.29V8.698h2.426l.469-2.879H5.29v-.887c0-.565.383-1.019.929-1.019z"/></symbol><symbol viewBox="0 0 19 19" id="icon-instagram"><path fill="#fff" d="M13.401.686H5.212A4.839 4.839 0 00.38 5.52v8.188a4.839 4.839 0 004.833 4.834h8.19a4.839 4.839 0 004.832-4.834V5.52A4.839 4.839 0 0013.401.686zm-4.094 13.81a4.888 4.888 0 01-4.882-4.882 4.888 4.888 0 014.882-4.882 4.888 4.888 0 014.882 4.882 4.888 4.888 0 01-4.882 4.882zm4.999-8.613a1.444 1.444 0 01-1.443-1.442c0-.796.647-1.443 1.443-1.443.795 0 1.442.647 1.442 1.443 0 .795-.647 1.442-1.442 1.442z"/><path fill="#fff" d="M9.307 5.779A3.84 3.84 0 005.47 9.614a3.84 3.84 0 003.836 3.836 3.84 3.84 0 003.835-3.836A3.84 3.84 0 009.307 5.78zM14.306 4.045a.396.396 0 100 .792.396.396 0 000-.792z"/></symbol><symbol viewBox="0 0 53 20" id="icon-logo"><path fill="#000" fill-rule="evenodd" d="M19.375 7.823v9.173c.093.82.873 2.463 3.247 2.463h3.416v-1.848h-3.416c-.485 0-1.456-.268-1.456-1.343V7.823h4.032V5.807h-4.032V2.44h-1.791v3.368H16.91v2.016h2.464z" class="icon__logo-el two" clip-rule="evenodd"/><path fill="#000" fill-rule="evenodd" d="M46.338 7.823v9.173c.093.82.873 2.463 3.247 2.463H53v-1.848h-3.415c-.485 0-1.456-.268-1.456-1.343V7.823h4.031V5.807h-4.03V2.44h-1.792v3.368h-2.464v2.016h2.464z" class="icon__logo-el four" clip-rule="evenodd"/><path fill="#000" fill-rule="evenodd" d="M0 0h2.283l5.275 9.211L12.936 0h2.337L8.581 11.494H6.298L0 0zm8.583 11.494h-2.28v7.965h2.28v-7.965z" class="icon__logo-el one" clip-rule="evenodd"/><path fill="#000" fill-rule="evenodd" d="M26.963 0h2.283l5.275 9.211L39.899 0h2.337l-6.692 11.494h-2.283L26.963 0zm8.582 11.494h-2.279v7.965h2.28v-7.965z" class="icon__logo-el three" clip-rule="evenodd"/></symbol><symbol viewBox="0 0 24 24" id="icon-phone"><path d="M6.62 10.79c1.44 2.83 3.76 5.14 6.59 6.59l2.2-2.2c.27-.27.67-.36 1.02-.24 1.12.37 2.33.57 3.57.57.55 0 1 .45 1 1V20c0 .55-.45 1-1 1-9.39 0-17-7.61-17-17 0-.55.45-1 1-1h3.5c.55 0 1 .45 1 1 0 1.25.2 2.45.57 3.57.11.35.03.74-.25 1.02l-2.2 2.2z" class="icon__color-element"/></symbol><symbol viewBox="0 0 20 11" id="icon-vk"><path fill="#fff" fill-rule="evenodd" d="M9.85 10.958h1.115s.337-.037.509-.222c.158-.17.153-.489.153-.489s-.022-1.492.673-1.712c.685-.216 1.564 1.443 2.496 2.08.705.483 1.24.377 1.24.377l2.492-.034s1.303-.08.685-1.103c-.05-.083-.36-.756-1.852-2.138-1.563-1.446-1.354-1.212.529-3.714 1.146-1.524 1.604-2.454 1.46-2.852-.136-.38-.979-.28-.979-.28L15.566.89s-.208-.028-.363.064c-.15.09-.247.3-.247.3s-.444 1.18-1.037 2.182C12.67 5.55 12.171 5.662 11.966 5.53c-.475-.306-.356-1.23-.356-1.886 0-2.05.312-2.906-.607-3.127-.305-.074-.53-.122-1.31-.13-1-.01-1.848.003-2.328.238-.32.155-.565.503-.415.523.185.024.605.113.828.415.287.39.277 1.266.277 1.266s.165 2.414-.386 2.714c-.378.206-.897-.214-2.01-2.134-.571-.983-1.002-2.07-1.002-2.07s-.083-.203-.231-.312c-.18-.131-.432-.173-.432-.173L1.328.872s-.4.011-.547.185c-.13.154-.01.473-.01.473S2.858 6.4 5.22 8.855c2.168 2.25 4.629 2.103 4.629 2.103z" clip-rule="evenodd"/></symbol><symbol viewBox="0 0 21 15" id="icon-youtube"><path fill="#fff" d="M19.473 1.67c-.71-.843-2.02-1.187-4.52-1.187H5.871c-2.559 0-3.89.366-4.598 1.264-.689.875-.689 2.165-.689 3.95V9.1c0 3.458.818 5.214 5.287 5.214h9.08c2.17 0 3.372-.303 4.15-1.047.797-.764 1.137-2.01 1.137-4.167V5.697c0-1.883-.053-3.18-.766-4.027zm-6.27 6.198L9.08 10.023a.633.633 0 01-.928-.562V5.165a.634.634 0 01.926-.563l4.124 2.142a.634.634 0 01.001 1.124z"/></symbol></svg>